<?xml version="1.0" standalone="no"?>
<!DOCTYPE svg PUBLIC "-//W3C//DTD SVG 20010904//EN"
 "http://www.w3.org/TR/2001/REC-SVG-20010904/DTD/svg10.dtd">
<svg version="1.0" xmlns="http://www.w3.org/2000/svg"
 width="48.000000pt" height="48.000000pt" viewBox="0 0 48.000000 48.000000"
 preserveAspectRatio="xMidYMid meet">

<g transform="translate(0.000000,48.000000) scale(0.100000,-0.100000)"
fill="#000000" stroke="none">
<path d="M22 308 c-6 -6 -12 -23 -12 -37 0 -19 3 -22 9 -12 6 9 20 12 40 9 29
-4 32 -3 29 21 -2 19 -10 27 -28 29 -14 2 -31 -3 -38 -10z m58 -13 c0 -10 -10
-15 -30 -15 -29 0 -38 9 -23 23 13 13 53 7 53 -8z"/>
<path d="M112 313 c10 -2 18 -17 21 -36 l4 -32 1 32 c1 21 8 33 20 36 9 3 -1
5 -23 5 -22 0 -32 -2 -23 -5z"/>
<path d="M181 302 c-13 -25 5 -52 34 -52 13 0 28 8 34 17 13 25 -5 53 -34 53
-13 0 -29 -8 -34 -18z m62 -4 c7 -22 -4 -38 -28 -38 -24 0 -35 16 -27 38 6 16
49 16 55 0z"/>
<path d="M272 281 l1 -36 4 33 c5 35 17 42 28 15 6 -17 7 -16 18 2 11 18 12
17 18 -15 l6 -35 2 35 c1 35 0 35 -39 36 -40 1 -40 1 -38 -35z"/>
<path d="M407 313 c-3 -5 -4 -19 -3 -33 1 -33 50 -42 59 -11 3 14 0 21 -9 21
-8 0 -11 -6 -8 -15 4 -10 0 -15 -15 -15 -23 0 -29 15 -8 23 10 4 10 6 0 6 -24
2 -13 20 15 24 l27 4 -27 2 c-15 0 -29 -2 -31 -6z"/>
<path d="M16 211 c-3 -5 2 -12 11 -15 15 -6 15 -8 3 -16 -9 -6 -10 -10 -3 -10
16 0 26 17 13 25 -6 4 -8 11 -5 16 4 5 2 9 -4 9 -5 0 -12 -4 -15 -9z"/>
<path d="M280 201 c0 -25 6 -27 13 -6 4 8 2 17 -3 20 -6 4 -10 -3 -10 -14z"/>
<path d="M156 197 c3 -10 9 -15 12 -12 3 3 0 11 -7 18 -10 9 -11 8 -5 -6z"/>
</g>
</svg>
